<svg id="Layer_1" data-name="Layer 1" xmlns="http://www.w3.org/2000/svg" width="38.2496" height="38.3016" viewBox="0 0 38.2496 38.3016" class="icon-wrapper mx-auto">
    <path d="M30.93,7.908a.7369.7369,0,0,1-.205-.503.71.71,0,0,1,1.419,0,.7114.7114,0,0,1-1.213.503M28.923,9.916a.74.74,0,0,1-.206-.504.7254.7254,0,0,1,.206-.503.7149.7149,0,0,1,1.007,0,.7121.7121,0,0,1-1.007,1.007m-2.007,2a.704.704,0,1,1,.0115.0115l-.0115-.0115m-2.008,2.008a.71.71,0,1,1,1.007,0,.6961.6961,0,0,1-.503.206.7079.7079,0,0,1-.504-.206m-2,2.008a.6941.6941,0,0,1-.0187-.9813l.0187-.0187a.693.693,0,0,1,.98-.02l.02.02a.7075.7075,0,0,1-1.001,1m-2.22,1.504a.7182.7182,0,0,1,.213-.504.706.706,0,0,1,1.206.504.6957.6957,0,0,1-.206.503.713.713,0,0,1-1.213-.503Zm-1.794,2.51a.6973.6973,0,0,1-.206-.503.7055.7055,0,1,1,1.411,0,.6969.6969,0,0,1-.205.504.71.71,0,0,1-1,0m-2.008,2a.7071.7071,0,0,1,1-1l0,0a.7.7,0,0,1,.213.503.7262.7262,0,0,1-.709.709.7.7,0,0,1-.504-.212m-2.007,2.007a.703.703,0,1,1,.0129.0129l-.0129-.0129M12.87,25.961a.7071.7071,0,0,1,0-1l0,0a.71.71,0,0,1,1.008,1,.7171.7171,0,0,1-1.008,0m-2,2.008a.6923.6923,0,0,1-.213-.504.713.713,0,0,1,1.213-.503.7391.7391,0,0,1,.206.503.7132.7132,0,0,1-.206.504.6968.6968,0,0,1-.504.206.6809.6809,0,0,1-.496-.206M8.862,29.977a.6927.6927,0,0,1-.212-.504.712.712,0,0,1,1.212-.504.7079.7079,0,0,1,.207.504.6859.6859,0,0,1-.206.504.714.714,0,0,1-1,0M6.855,31.984a.6961.6961,0,0,1-.206-.503.7081.7081,0,1,1,1.2175.4915l-.0115.0115a.7119.7119,0,0,1-1,0" transform="translate(-0.272 -0.291)" style="fill-rule: evenodd;"></path>
    <path d="M7.862,7.908a.7373.7373,0,0,0,.206-.503.71.71,0,0,0-1.419,0,.7171.7171,0,0,0,.71.71.7082.7082,0,0,0,.503-.207M9.87,9.916a.74.74,0,0,0,.205-.504.7268.7268,0,0,0-.205-.503.7149.7149,0,0,0-1.007,0,.7259.7259,0,0,0-.206.503.7341.7341,0,0,0,.206.504.7183.7183,0,0,0,1.007,0m2.007,2a.704.704,0,1,0-.0115.0115l.0115-.0115m2.008,2.008a.71.71,0,1,0-1.007,0,.6958.6958,0,0,0,.503.206.7079.7079,0,0,0,.504-.206m2,2.008a.6941.6941,0,0,0,.0187-.9813l-.0187-.0187a.693.693,0,0,0-.98-.02l-.02.02a.7071.7071,0,0,0,1,1m2.22,1.504a.7178.7178,0,0,0-.212-.504.706.706,0,0,0-1.206.504.6958.6958,0,0,0,.206.503.713.713,0,0,0,1.213-.503Zm1.795,2.51a.6973.6973,0,0,0,.206-.503.7055.7055,0,0,0-1.411,0,.697.697,0,0,0,.205.504.71.71,0,0,0,1,0m2.007,2a.7071.7071,0,0,0-1-1l0,0a.704.704,0,0,0-.213.503.728.728,0,0,0,.71.709.7.7,0,0,0,.503-.212m2.008,2.007a.7308.7308,0,1,0-.0139.0129l.0129-.0129m2.008,2.007a.7072.7072,0,0,0,0-1l0,0a.71.71,0,0,0-1.007,1,.7158.7158,0,0,0,1.007,0m2,2.008a.692.692,0,0,0,.213-.504.712.712,0,0,0-1.212-.503.7391.7391,0,0,0-.206.503.7078.7078,0,0,0,.206.504.6974.6974,0,0,0,.503.206.6808.6808,0,0,0,.497-.206m2.007,2.008a.6933.6933,0,0,0,.213-.504.713.713,0,0,0-1.213-.504.7079.7079,0,0,0-.206.504.6869.6869,0,0,0,.206.504.714.714,0,0,0,1,0m2.008,2.007a.6957.6957,0,0,0,.206-.503.7081.7081,0,1,0-1.2175.4915l.0115.0115a.7119.7119,0,0,0,1,0M12.634,8.452,8.326,4.143a17.735,17.735,0,0,1,22.082.008L26.092,8.466a12.3328,12.3328,0,0,0-13.458-.015ZM8.387,26.17,4.082,30.475A17.9222,17.9222,0,0,1,4.07,8.395L8.373,12.7a12.1287,12.1287,0,0,0,.015,13.472Zm17.74,4.282,4.291,4.291a17.8077,17.8077,0,0,1-10.989,3.849,17.4483,17.4483,0,0,1-11.115-3.84l4.285-4.286a11.703,11.703,0,0,0,6.805,2.083A11.9449,11.9449,0,0,0,26.127,30.452ZM30.37,12.696l4.31-4.311A17.434,17.434,0,0,1,38.521,19.5a17.8465,17.8465,0,0,1-3.854,10.984l-4.306-4.306a12.0945,12.0945,0,0,0,2.04-6.625A11.9072,11.9072,0,0,0,30.37,12.696Zm4.473,19.14a2.9945,2.9945,0,1,1-2.9945,2.9945A2.9945,2.9945,0,0,1,34.843,31.836m-30.857.006A2.9945,2.9945,0,1,1,.9915,34.8365,2.9945,2.9945,0,0,1,3.986,31.842M34.871.957a2.994,2.994,0,1,1,.002,5.988h-.002a2.994,2.994,0,0,1,0-5.988M3.91.904a2.994,2.994,0,0,1,.0018,5.988H3.91a2.994,2.994,0,0,1,0-5.988" transform="translate(-0.272 -0.291)" style="fill-rule: evenodd;"></path>
</svg>